<?xml version="1.0" encoding="utf-8"?>
<!-- Generator: Adobe Illustrator 21.1.0, SVG Export Plug-In . SVG Version: 6.00 Build 0)  -->
<svg version="1.1" xmlns="http://www.w3.org/2000/svg" xmlns:xlink="http://www.w3.org/1999/xlink" x="0px" y="0px"
	 viewBox="0 0 360 248" style="enable-background:new 0 0 360 248;" xml:space="preserve">
<style type="text/css">
	.st0{fill:#D5DC25;fill-opacity:0.33;}
	.st1{fill:#08A24A;fill-opacity:0.33;}
	.st2{fill:#EE3041;fill-opacity:0.33;}
	.st3{font-family:'ArialMT';}
	.st4{font-size:12px;}
	.st5{font-family:'MyriadPro-Regular';}
	.st6{fill:#FFFFFF;stroke:#000000;stroke-miterlimit:10;}
	.st7{fill:none;stroke:#242011;stroke-miterlimit:10;}
	.st8{fill:#242011;}
	.st9{fill:none;stroke:#18164D;stroke-miterlimit:10;}
	.st10{fill:#18164D;}
	.st11{fill:none;stroke:#231F20;stroke-miterlimit:10;}
	.st12{fill:#231F20;}
	.st13{fill:none;stroke:#231F20;stroke-width:4;stroke-miterlimit:10;}
	.st14{fill:none;stroke:#000000;stroke-miterlimit:10;}
</style>
<g id="Layer_2">
	<polygon class="st0" points="136,208 136,248 0,248 0,0 172,0 172,208 	"/>
	<polygon class="st1" points="360,248 224,248 224,208 188,208 188,0 360,0 	"/>
	<rect x="172" class="st2" width="16" height="208"/>
	<rect x="136" y="208" class="st2" width="88" height="40"/>
	<text transform="matrix(1 0 0 1 8 244)" class="st3 st4">Write Clock Domain</text>
	<text transform="matrix(1 0 0 1 248 244)" class="st3 st4">Read Clock Domain</text>
	<text transform="matrix(1 0 0 1 147.5884 228)"><tspan x="0" y="0" class="st5 st4">Metastability</tspan><tspan x="16.1" y="14.4" class="st5 st4">region</tspan></text>
</g>
<g id="Layer_1">
	<g>
		<rect x="148" y="3" class="st6" width="64" height="81"/>
		<text transform="matrix(1 0 0 1 159.084 40)"><tspan x="0" y="0" class="st5 st4">Memory</tspan><tspan x="12.4" y="14.4" class="st5 st4">cell</tspan></text>
	</g>
	<g>
		<rect x="48" y="56" class="st6" width="48" height="28"/>
		<g>
			<text transform="matrix(1 0 0 1 58.5664 68)"><tspan x="0" y="0" class="st5 st4">Write</tspan><tspan x="-6.1" y="14.4" class="st5 st4">counter</tspan></text>
		</g>
	</g>
	<g>
		<rect x="264" y="56" class="st6" width="48" height="28"/>
		<g>
			<text transform="matrix(1 0 0 1 275.4902 68)"><tspan x="0" y="0" class="st5 st4">Read</tspan><tspan x="-7.1" y="14.4" class="st5 st4">counter</tspan></text>
		</g>
	</g>
	<g>
		<rect x="48" y="164" class="st6" width="48" height="32"/>
		<g>
			<text transform="matrix(1 0 0 1 62.9399 176)"><tspan x="0" y="0" class="st5 st4">Full</tspan><tspan x="-0.3" y="14.4" class="st5 st4">flag</tspan></text>
		</g>
	</g>
	<g>
		<rect x="264" y="100" class="st6" width="48" height="32"/>
		<g>
			<text transform="matrix(1 0 0 1 271.8184 112)"><tspan x="0" y="0" class="st5 st4">Empty</tspan><tspan x="6.8" y="14.4" class="st5 st4">flag</tspan></text>
		</g>
	</g>
	<g>
		<g>
			<line class="st7" x1="96" y1="68" x2="140.8" y2="68"/>
			<g>
				<polygon class="st8" points="139.4,73 148,68 139.4,63 				"/>
			</g>
		</g>
	</g>
	<g>
		<g>
			<line class="st9" x1="264" y1="68" x2="219.2" y2="68"/>
			<g>
				<polygon class="st10" points="220.6,63 212,68 220.6,73 				"/>
			</g>
		</g>
	</g>
	<g>
		<g>
			<line class="st11" x1="0" y1="68" x2="40.8" y2="68"/>
			<g>
				<polygon class="st12" points="39.4,73 48,68 39.4,63 				"/>
			</g>
		</g>
	</g>
	<g>
		<g>
			<line class="st11" x1="48" y1="180" x2="7.2" y2="180"/>
			<g>
				<polygon class="st12" points="8.6,175 0,180 8.6,185 				"/>
			</g>
		</g>
	</g>
	<g>
		<g>
			<line class="st11" x1="312" y1="116" x2="352.8" y2="116"/>
			<g>
				<polygon class="st12" points="351.4,121 360,116 351.4,111 				"/>
			</g>
		</g>
	</g>
	<g>
		<g>
			<line class="st11" x1="319.2" y1="68" x2="360" y2="68"/>
			<g>
				<polygon class="st12" points="320.6,73 312,68 320.6,63 				"/>
			</g>
		</g>
	</g>
	<g>
		<g>
			<line class="st13" x1="212" y1="24" x2="348.5" y2="24"/>
			<g>
				<polygon class="st12" points="346.2,32 360,24 346.2,16 				"/>
			</g>
		</g>
	</g>
	<g>
		<g>
			<line class="st13" x1="0" y1="24" x2="136.5" y2="24"/>
			<g>
				<polygon class="st12" points="134.2,32 148,24 134.2,16 				"/>
			</g>
		</g>
	</g>
	<text transform="matrix(1 0 0 1 4 20)" class="st3 st4">Write Data</text>
	<text transform="matrix(1 0 0 1 288 20)" class="st3 st4">Read Data</text>
	<text transform="matrix(1 0 0 1 4 48)"><tspan x="0" y="0" class="st5 st4">Write</tspan><tspan x="0" y="14.4" class="st5 st4">Signal</tspan></text>
	<text transform="matrix(1 0 0 1 324 48)"><tspan x="0" y="0" class="st5 st4">Read</tspan><tspan x="0" y="14.4" class="st5 st4">Signal</tspan></text>
	<path class="st14" d="M204,68"/>
	<g>
		<g>
			<polyline class="st9" points="256.8,108 252,108 252,68 			"/>
			<g>
				<polygon class="st10" points="255.4,103 264,108 255.4,113 				"/>
			</g>
		</g>
	</g>
	<g>
		<g>
			<path class="st9" d="M168,108h-48v60c0,0-4,0-4,4s4,4,4,4v12h-16.8"/>
			<g>
				<polygon class="st10" points="104.6,183 96,188 104.6,193 				"/>
			</g>
		</g>
	</g>
	<g>
		<g>
			<polyline class="st7" points="108,68 108,172 103.2,172 			"/>
			<g>
				<polygon class="st8" points="104.6,167 96,172 104.6,177 				"/>
			</g>
		</g>
	</g>
	<g>
		<rect x="192" y="92" transform="matrix(-1.836970e-16 1 -1 -1.836970e-16 316 -100)" class="st6" width="32" height="32"/>
		<text transform="matrix(1 0 0 1 196.9662 104.0003)"><tspan x="0" y="0" class="st5 st4">gray</tspan><tspan x="-1.3" y="14.4" class="st5 st4">code</tspan></text>
	</g>
	<g>
		<rect x="168" y="92" class="st6" width="24" height="32"/>
		<text transform="matrix(1 0 0 1 171.0781 104)"><tspan x="0" y="0" class="st5 st4">2FF</tspan><tspan x="-2.3" y="14.4" class="st5 st4">sync</tspan></text>
	</g>
	<g>
		<rect x="136" y="156" transform="matrix(-1.836970e-16 1 -1 -1.836970e-16 324 20)" class="st6" width="32" height="32"/>
		<text transform="matrix(1 0 0 1 140.9662 168.0003)"><tspan x="0" y="0" class="st5 st4">gray</tspan><tspan x="-1.3" y="14.4" class="st5 st4">code</tspan></text>
	</g>
	<g>
		<rect x="168" y="156" class="st6" width="24" height="32"/>
		<text transform="matrix(1 0 0 1 171.0781 168)"><tspan x="0" y="0" class="st5 st4">2FF</tspan><tspan x="-2.3" y="14.4" class="st5 st4">sync</tspan></text>
	</g>
	<path class="st13" d="M108,172"/>
	<g>
		<g>
			<line class="st7" x1="108" y1="172" x2="128.8" y2="172"/>
			<g>
				<polygon class="st8" points="127.4,177 136,172 127.4,167 				"/>
			</g>
		</g>
	</g>
	<g>
		<g>
			<line class="st9" x1="252" y1="108" x2="231.2" y2="108"/>
			<g>
				<polygon class="st10" points="232.6,103 224,108 232.6,113 				"/>
			</g>
		</g>
	</g>
	<g>
		<g>
			<polyline class="st7" points="192,172 248,172 248,124 256.8,124 			"/>
			<g>
				<polygon class="st8" points="255.4,129 264,124 255.4,119 				"/>
			</g>
		</g>
	</g>
</g>
</svg>
