<?xml version="1.0" encoding="utf-8"?>
<!-- Generator: Adobe Illustrator 23.0.2, SVG Export Plug-In . SVG Version: 6.00 Build 0)  -->
<svg version="1.1" xmlns="http://www.w3.org/2000/svg" xmlns:xlink="http://www.w3.org/1999/xlink" x="0px" y="0px"
	 viewBox="0 0 504 369" style="enable-background:new 0 0 504 369;" xml:space="preserve">
<style type="text/css">
	.st0{display:none;opacity:0.33;fill:#FF697E;enable-background:new    ;}
	.st1{font-family:'ArialMT';}
	.st2{font-size:12px;}
	.st3{fill:none;stroke:#000000;stroke-miterlimit:10;}
	.st4{opacity:0.33;fill:#FF697E;enable-background:new    ;}
	.st5{fill:none;stroke:#000000;stroke-width:0.5;stroke-miterlimit:10;stroke-dasharray:2,8;}
	.st6{fill:none;stroke:#000000;stroke-linejoin:bevel;stroke-miterlimit:10;}
	.st7{fill:#FFFFFF;}
	.st8{fill:none;stroke:#000000;stroke-linecap:round;stroke-linejoin:round;stroke-miterlimit:10;}
	.st9{fill:none;stroke:#000000;stroke-miterlimit:10;stroke-dasharray:6,4;}
</style>
<g id="Layer_3_1_">
	<rect x="44" y="283.3" class="st0" width="262" height="58.9"/>
	<text transform="matrix(1 0 0 1 58.3301 243.0004)" class="st1 st2">clkA</text>
	<text transform="matrix(1 0 0 1 58.3301 324.0004)" class="st1 st2">clkB</text>
	<text transform="matrix(1 0 0 1 53.6485 270.0008)" class="st1 st2">flagA</text>
	<path class="st3" d="M306,360"/>
	<text transform="matrix(1 0 0 1 53.6485 351.0001)" class="st1 st2">flagB</text>
	<polyline class="st3" points="90,243 99,243 99,225 117,225 117,243 135,243 135,225 153,225 153,243 171,243 171,225 189,225 
		189,243 207,243 207,225 225,225 225,243 243,243 243,225 261,225 261,243 279,243 279,225 297,225 297,243 315,243 315,225 
		333,225 333,243 351,243 351,225 369,225 369,243 387,243 387,225 405,225 405,243 423,243 423,225 441,225 441,243 459,243 	"/>
	<text transform="matrix(1 0 0 1 55.6524 297.0008)" class="st1 st2">busy</text>
	<polyline class="st3" points="90,297 135,297 144,279 387,279 396,297 459,297 	"/>
	<polyline class="st3" points="90,324 99,324 99,306 135,306 135,324 171,324 171,306 207,306 207,324 243,324 243,306 279,306 
		279,324 315,324 315,306 351,306 351,324 387,324 387,306 423,306 423,324 459,324 	"/>
	<path class="st3" d="M108,306"/>
	<polyline class="st3" points="90,351 243,351 252,333 315,333 324,351 387,351 459,351 	"/>
	<path class="st3" d="M414,171"/>
	<g id="Layer_3_2_">
		<rect x="90" y="301.7" class="st4" width="369" height="53.6"/>
	</g>
	<polyline class="st3" points="459,270 387,270 144,270 135,252 108,252 99,270 90,270 	"/>
</g>
<g id="Layer_1">
	<line class="st5" x1="171" y1="249.1" x2="171" y2="360"/>
	<line class="st5" x1="99" y1="249.1" x2="99" y2="360"/>
	<line class="st5" x1="315" y1="249.1" x2="315" y2="360"/>
	<line class="st5" x1="387" y1="249.1" x2="387" y2="360"/>
	<line class="st5" x1="243" y1="249.1" x2="243" y2="360"/>
</g>
<g id="Layer_2">
	<g>
		<path class="st6" d="M112.5,144h-9c5,0,9,8.1,9,18s-4,18-9,18h9c13.1,0,24-7.7,26.5-18C136.5,151.7,125.6,144,112.5,144z"/>
		<path class="st6" d="M103.5,178c3.3,0,7-6.6,7-16s-3.7-16-7-16"/>
	</g>
	<g>
		<path class="st6" d="M94.5,87.8h9c-5,0-9-8.1-9-18s4-18,9-18h-9c-13.1,0-24,7.7-26.5,18C70.5,80,81.4,87.8,94.5,87.8z"/>
		<path class="st6" d="M103.5,53.7c-3.3,0-7,6.6-7,16s3.7,16,7,16"/>
	</g>
	<g>
		<g>
			<rect x="149" y="128.8" class="st7" width="31" height="47"/>
			<path d="M179.5,129.3v46h-30v-46H179.5 M180.5,128.3h-32v48h32V128.3L180.5,128.3z"/>
		</g>
		<g>
			<polygon class="st7" points="157.4,128.9 171.6,128.9 164.5,141.1 			"/>
			<path d="M170.8,129.4l-6.3,10.8l-6.3-10.9L170.8,129.4 M172.5,128.4h-16l8,13.9L172.5,128.4L172.5,128.4z"/>
		</g>
		<text transform="matrix(1 0 0 1 150.77 164.25)" class="st1 st2">D</text>
		<text transform="matrix(1 0 0 1 169.77 164.25)" class="st1 st2">Q</text>
	</g>
	<path class="st3" d="M163.9,110"/>
	<path class="st3" d="M116.9,110"/>
	<path class="st3" d="M164.9,106"/>
	<path class="st3" d="M117.9,106"/>
	<path class="st3" d="M164.9,106"/>
	<path class="st3" d="M117.9,106"/>
	<path class="st3" d="M163.9,114"/>
	<text transform="matrix(1 0 0 1 112.5001 112.4999)" class="st1 st2">clkA</text>
	<text transform="matrix(1 0 0 1 378 112.4999)" class="st1 st2">clkB</text>
	<text transform="matrix(1 0 0 1 11.1801 148.4999)" class="st1 st2">flagA</text>
	<path d="M139,162"/>
	<path d="M139.5,162"/>
	<line class="st3" x1="139.5" y1="162" x2="148.5" y2="162"/>
	<polyline class="st8" points="180,162 207,162 207,189 94.5,189 94.5,171 109.2,171 	"/>
	<line class="st8" x1="13.6" y1="153" x2="109.2" y2="153"/>
	<polyline class="st3" points="164.3,128.3 164.3,114.8 112.5,114.8 	"/>
	<g>
		<g>
			<rect x="239" y="128.8" class="st7" width="31" height="47"/>
			<path d="M269.5,129.3v46h-30v-46H269.5 M270.5,128.3h-32v48h32V128.3L270.5,128.3z"/>
		</g>
		<g>
			<polygon class="st7" points="247.4,128.9 261.6,128.9 254.5,141.1 			"/>
			<path d="M260.8,129.4l-6.3,10.8l-6.3-10.9L260.8,129.4 M262.5,128.4h-16l8,13.9L262.5,128.4L262.5,128.4z"/>
		</g>
		<text transform="matrix(1 0 0 1 240.77 164.25)" class="st1 st2">D</text>
		<text transform="matrix(1 0 0 1 259.77 164.25)" class="st1 st2">Q</text>
	</g>
	<g>
		<g>
			<rect x="292.5" y="128.8" class="st7" width="31" height="47"/>
			<path d="M323,129.3v46h-30v-46H323 M324,128.3h-32v48h32V128.3L324,128.3z"/>
		</g>
		<g>
			<polygon class="st7" points="300.9,128.9 315.1,128.9 308,141.1 			"/>
			<path d="M314.3,129.4l-6.3,10.8l-6.3-10.9L314.3,129.4 M316,128.4h-16l8,13.9L316,128.4L316,128.4z"/>
		</g>
		<text transform="matrix(1 0 0 1 294.27 164.25)" class="st1 st2">D</text>
		<text transform="matrix(1 0 0 1 313.27 164.25)" class="st1 st2">Q</text>
	</g>
	<g>
		<g>
			<rect x="347" y="128.8" class="st7" width="31" height="47"/>
			<path d="M377.5,129.3v46h-30v-46H377.5 M378.5,128.3h-32v48h32V128.3L378.5,128.3z"/>
		</g>
		<g>
			<polygon class="st7" points="355.4,128.9 369.6,128.9 362.5,141.1 			"/>
			<path d="M368.8,129.4l-6.3,10.8l-6.3-10.9L368.8,129.4 M370.5,128.4h-16l8,13.9L370.5,128.4L370.5,128.4z"/>
		</g>
		<text transform="matrix(1 0 0 1 348.77 164.25)" class="st1 st2">D</text>
		<text transform="matrix(1 0 0 1 367.77 164.25)" class="st1 st2">Q</text>
	</g>
	<polyline class="st3" points="362.3,128.3 362.3,114.8 400.5,114.8 	"/>
	<polyline class="st3" points="308.3,128.3 308.3,114.8 362.3,114.8 	"/>
	<polyline class="st3" points="254.3,128.3 254.3,114.8 308.3,114.8 	"/>
	<line class="st3" x1="270" y1="162" x2="292.5" y2="162"/>
	<line class="st3" x1="324" y1="162" x2="346.5" y2="162"/>
	<g>
		<path class="st6" d="M423,153h-9c5,0,9,8.1,9,18s-4,18-9,18h9c13.1,0,24-7.7,26.5-18C447,160.7,436.1,153,423,153z"/>
		<path class="st6" d="M414,187c3.3,0,7-6.6,7-16s-3.7-16-7-16"/>
	</g>
	<line class="st6" x1="378" y1="162" x2="419.7" y2="162"/>
	<polyline class="st6" points="419.7,180 335.3,180 335.3,162 	"/>
	<line class="st6" x1="449.5" y1="171" x2="481.5" y2="171"/>
	<text transform="matrix(1 0 0 1 461.2703 166.5001)" class="st1 st2">flagB</text>
	<g id="Layer_3">
		<rect x="216" y="42.8" class="st4" width="276.8" height="150.8"/>
	</g>
	<line class="st9" x1="216.3" y1="42.8" x2="216.3" y2="193.5"/>
	<g>
		<g>
			<rect x="157.5" y="27.5" class="st7" width="31" height="47"/>
			<path d="M188,28v46h-30V28H188 M189,27h-32v48h32V27L189,27z"/>
		</g>
		<g>
			<polygon class="st7" points="165.9,27.6 180.1,27.6 173,39.9 			"/>
			<path d="M179.3,28.1L173,38.9L166.7,28L179.3,28.1 M181,27.1h-16l8,13.9L181,27.1L181,27.1z"/>
		</g>
		<text transform="matrix(1 0 0 1 178.52 63.0002)" class="st1 st2">D</text>
		<text transform="matrix(1 0 0 1 159.25 63)" class="st1 st2">Q</text>
	</g>
	<g>
		<g>
			<rect x="112.5" y="27.5" class="st7" width="31" height="47"/>
			<path d="M143,28v46h-30V28H143 M144,27h-32v48h32V27L144,27z"/>
		</g>
		<g>
			<polygon class="st7" points="120.9,27.6 135.1,27.6 128,39.9 			"/>
			<path d="M134.3,28.1L128,38.9L121.7,28L134.3,28.1 M136,27.1h-16l8,13.9L136,27.1L136,27.1z"/>
		</g>
		<text transform="matrix(1 0 0 1 133.52 63.0002)" class="st1 st2">D</text>
		<text transform="matrix(1 0 0 1 114.25 63)" class="st1 st2">Q</text>
	</g>
	<polyline class="st3" points="97.8,78.8 198,78.8 198,162 239.5,162 	"/>
	<line class="st3" x1="68" y1="69.8" x2="13.6" y2="69.8"/>
	<text transform="matrix(1 0 0 1 11.2499 63.0002)" class="st1 st2">busy</text>
	<polyline class="st3" points="407.3,162 407.3,60.8 189,60.8 	"/>
	<line class="st3" x1="112.5" y1="60.8" x2="97.8" y2="60.8"/>
	<polyline class="st3" points="128.3,27 128.3,18 90,18 	"/>
	<polyline class="st3" points="173.3,27 173.3,18 128.3,18 	"/>
	<text transform="matrix(1 0 0 1 90.0001 15.75)" class="st1 st2">clkA</text>
	<line class="st3" x1="157.5" y1="60.8" x2="144" y2="60.8"/>
</g>
</svg>
